<svg xmlns="http://www.w3.org/2000/svg" xmlns:xlink="http://www.w3.org/1999/xlink" width="50" height="50" viewBox="0 0 50 50">
  <defs>
    <clipPath id="clip-path">
      <rect id="Rectangle_1" data-name="Rectangle 1" width="50" height="50" transform="translate(114 56)" fill="#fff" stroke="#707070" stroke-width="1"/>
    </clipPath>
  </defs>
  <g id="Mask_Group_1" data-name="Mask Group 1" transform="translate(-114 -56)" clip-path="url(#clip-path)">
    <g id="cloud" transform="translate(114 56)">
      <path id="Path_1" data-name="Path 1" d="M2.218,30.94A6.657,6.657,0,0,0,7.5,41.66H39.15c.283,0,.558-.008.833-.033A10,10,0,0,0,39.15,21.67a9.884,9.884,0,0,0-3.348.575c.008-.192.017-.383.017-.575a10,10,0,0,0-7.771-9.745c-.175-.042-.358-.075-.541-.1-.258-.05-.516-.083-.783-.108-.3-.025-.6-.042-.9-.042a9.987,9.987,0,0,0-7.147,3,9.416,9.416,0,0,0-1.6,2.157.29.29,0,0,1-.042.067v.008a9.541,9.541,0,0,0-.808,1.949,10.1,10.1,0,0,0-.342,1.758,8.809,8.809,0,0,0-.058,1.058,9.538,9.538,0,0,0,.083,1.3,7.175,7.175,0,0,0-2.582-.466,7.507,7.507,0,0,0-3.232.733,8.054,8.054,0,0,0-.941.541,4.479,4.479,0,0,0-.508.383,7.4,7.4,0,0,0-.8.733,6.8,6.8,0,0,0-.658.808,7.428,7.428,0,0,0-1.208,2.807,6.3,6.3,0,0,0-1.391.5,6.707,6.707,0,0,0-1.5,1A6.153,6.153,0,0,0,2.218,30.94Z" fill="#78b9eb"/>
      <path id="Path_2" data-name="Path 2" d="M5.983,28.508A7.431,7.431,0,0,1,7.19,25.7a6.794,6.794,0,0,1,.658-.808,7.418,7.418,0,0,1,.8-.733,4.456,4.456,0,0,1,.508-.383,8.055,8.055,0,0,1,.941-.541,7.509,7.509,0,0,1,3.232-.733,7.176,7.176,0,0,1,2.582.466,9.537,9.537,0,0,1-.083-1.3,8.809,8.809,0,0,1,.058-1.058,10.1,10.1,0,0,1,.342-1.758,9.537,9.537,0,0,1,.808-1.949V16.9a.286.286,0,0,0,.042-.067,9.418,9.418,0,0,1,1.6-2.157,9.987,9.987,0,0,1,7.147-3c.3,0,.6.017.9.042.267.025.525.058.783.108a6.652,6.652,0,0,0-12.477,2.59,5.724,5.724,0,0,0-3.365-1.075,5.842,5.842,0,0,0-5.589,7.5,2.117,2.117,0,0,0-.242-.008,5,5,0,0,0-2.74,9.171,6.7,6.7,0,0,1,1.5-1A6.3,6.3,0,0,1,5.983,28.508Z" fill="#41769e"/>
      <path id="Path_3" data-name="Path 3" d="M39.15,20.837a10.819,10.819,0,0,0-2.513.292,10.9,10.9,0,0,0-8.4-10.014c-.076-.018-.152-.033-.228-.048a7.474,7.474,0,0,0-13.6,2.032A6.668,6.668,0,0,0,5,19.171a6.817,6.817,0,0,0,.058.885,5.818,5.818,0,0,0-3.2,10.027c-.1.116-.2.23-.3.351A7.412,7.412,0,0,0,0,35a7.505,7.505,0,0,0,7.5,7.5H39.15c.309,0,.609-.009.9-.036a10.828,10.828,0,0,0-.9-21.62ZM5.833,21.67H5.9a.7.7,0,0,1,.083,0A.832.832,0,0,0,6.869,20.6a5.091,5.091,0,0,1-.2-1.433,5,5,0,0,1,5-5,4.893,4.893,0,0,1,2.879.916.832.832,0,0,0,1.316-.6,5.86,5.86,0,0,1,6.151-5.3,5.766,5.766,0,0,1,3.731,1.661c-.052,0-.1.008-.156.009h-.033a10.986,10.986,0,0,0-1.158.092l-.045.008a10.741,10.741,0,0,0-1.115.212l-.062.016a10.5,10.5,0,0,0-1.05.321l-.1.035q-.487.182-.954.411c-.048.023-.1.045-.144.069-.288.147-.569.307-.844.48-.062.038-.126.074-.187.113-.258.167-.508.353-.75.546-.066.052-.134.1-.2.151a11.122,11.122,0,0,0-.861.785,10.258,10.258,0,0,0-1.739,2.347v0l-.007.01a.948.948,0,0,0-.066.122,10.411,10.411,0,0,0-.845,2.057,10.74,10.74,0,0,0-.369,1.891,9.337,9.337,0,0,0-.067,1.162v.167a8.422,8.422,0,0,0-5.263.65,8.913,8.913,0,0,0-1.038.6,4.816,4.816,0,0,0-.564.424,8.009,8.009,0,0,0-.881.806,7.484,7.484,0,0,0-.74.906,8.29,8.29,0,0,0-1.223,2.613,6.615,6.615,0,0,0-1.063.426,7.765,7.765,0,0,0-1.038.625c-.035.024-.077.042-.111.067A4.164,4.164,0,0,1,5.833,21.67ZM39.906,40.8c-.25.023-.5.03-.756.03H7.5A5.837,5.837,0,0,1,1.668,35a5.775,5.775,0,0,1,1.214-3.555,5.416,5.416,0,0,1,.763-.812,5.921,5.921,0,0,1,1.324-.88,5.413,5.413,0,0,1,1.208-.432.833.833,0,0,0,.621-.644A6.652,6.652,0,0,1,7.87,26.181a6.05,6.05,0,0,1,.583-.719,6.767,6.767,0,0,1,.75-.682,3.772,3.772,0,0,1,.417-.311,7.136,7.136,0,0,1,.833-.482,6.928,6.928,0,0,1,.647-.265c.16-.057.323-.1.487-.146.055-.015.108-.033.167-.047.175-.042.351-.074.528-.1.05-.008.1-.018.15-.025.159-.022.319-.034.479-.044.083,0,.16-.012.241-.013.157,0,.312,0,.466,0a1.23,1.23,0,0,1,.167.008c.156.01.309.027.461.048.058.008.116.013.172.022.157.026.312.061.465.1.048.012.1.02.146.033a5.967,5.967,0,0,1,.583.189.833.833,0,0,0,1.125-.89,8.661,8.661,0,0,1-.076-1.184,7.975,7.975,0,0,1,.053-.967,9.349,9.349,0,0,1,.313-1.615,8.709,8.709,0,0,1,.737-1.778l.017-.033c0-.011.02-.035.029-.053h0a8.576,8.576,0,0,1,1.461-1.967,9.11,9.11,0,0,1,6.552-2.749c.277,0,.554.016.821.038.239.023.471.052.7.1l.047.008a4.723,4.723,0,0,1,.469.083,9.22,9.22,0,0,1,7.122,8.936c0,.18-.008.36-.016.539a.833.833,0,0,0,1.114.82A9.028,9.028,0,0,1,39.15,22.5,9.162,9.162,0,0,1,39.906,40.8Z" fill="#231f20"/>
    </g>
  </g>
</svg>
