<svg xmlns="http://www.w3.org/2000/svg" xmlns:xlink="http://www.w3.org/1999/xlink" width="50" height="50" viewBox="0 0 50 50">
  <defs>
    <clipPath id="clip-path">
      <rect id="Rectangle_5" data-name="Rectangle 5" width="50" height="50" transform="translate(121 152)" fill="#fff"/>
    </clipPath>
  </defs>
  <g id="Mask_Group_5" data-name="Mask Group 5" transform="translate(-121 -152)" clip-path="url(#clip-path)">
    <g id="Filled_outline" data-name="Filled outline" transform="translate(119.334 150.335)">
      <path id="Path_45" data-name="Path 45" d="M43.332,10a6.6,6.6,0,0,0-1.667,0,9.295,9.295,0,0,0-15-5.4,9.129,9.129,0,0,0-5.833-2.1A8.99,8.99,0,0,0,11.7,10.833a7.611,7.611,0,0,0-1.7,0,7.5,7.5,0,0,0,0,15A9.771,9.771,0,0,0,13.333,25c1.472,2.357,3.683,4.167,6.666,4.167a8.311,8.311,0,0,0,6.666-3.348,8.311,8.311,0,0,0,6.667,3.348,8.755,8.755,0,0,0,7.5-5,7.649,7.649,0,0,0,2.5.833,7.5,7.5,0,0,0,0-15Z" fill="#195c85"/>
      <g id="Group_5" data-name="Group 5">
        <path id="Path_46" data-name="Path 46" d="M12.5,35.832a3.333,3.333,0,1,1-6.666,0C5.833,33.991,9.166,30,9.166,30S12.5,33.991,12.5,35.832Z" fill="#87cee9"/>
        <path id="Path_47" data-name="Path 47" d="M30,39.165a3.333,3.333,0,0,1-6.666,0c0-1.841,3.333-5.833,3.333-5.833S30,37.325,30,39.165Z" fill="#87cee9"/>
        <path id="Path_48" data-name="Path 48" d="M47.5,35.832a3.333,3.333,0,1,1-6.666,0c0-1.841,3.333-5.833,3.333-5.833S47.5,33.991,47.5,35.832Z" fill="#87cee9"/>
        <path id="Path_49" data-name="Path 49" d="M20.833,47.5a3.333,3.333,0,1,1-6.666,0c0-1.841,3.333-5.833,3.333-5.833S20.833,45.658,20.833,47.5Z" fill="#87cee9"/>
        <path id="Path_50" data-name="Path 50" d="M40,47.5a3.333,3.333,0,1,1-6.666,0c0-1.841,3.333-5.833,3.333-5.833S40,45.658,40,47.5Z" fill="#87cee9"/>
      </g>
      <path id="Path_51" data-name="Path 51" d="M43.332,9.166c-.188,0-.833-.056-1-.061A10.156,10.156,0,0,0,26.666,3.544a10.018,10.018,0,0,0-5.833-1.877,9.816,9.816,0,0,0-9.875,8.281c-.15.005-.782.052-.958.052a8.333,8.333,0,1,0,0,16.666,9.583,9.583,0,0,0,3.01-.644A8.4,8.4,0,0,0,20,30a9.072,9.072,0,0,0,6.666-2.886A9.072,9.072,0,0,0,33.332,30,9.529,9.529,0,0,0,41.2,25.227l.011.005a5.068,5.068,0,0,0,2.122.6,8.333,8.333,0,1,0,0-16.666Zm0,15a3.719,3.719,0,0,1-1.429-.45c-.265-.121-.527-.239-.787-.333a.833.833,0,0,0-1.029.411,7.97,7.97,0,0,1-6.754,4.539,7.436,7.436,0,0,1-6-3.015.833.833,0,0,0-1.333,0,7.436,7.436,0,0,1-6,3.015,7.143,7.143,0,0,1-5.96-3.775.833.833,0,0,0-1.033-.325A9.056,9.056,0,0,1,10,25a6.666,6.666,0,0,1,0-13.333,13.757,13.757,0,0,1,1.51-.022.833.833,0,0,0,1.02-.755,8.151,8.151,0,0,1,8.3-7.556,8.343,8.343,0,0,1,5.3,1.9.833.833,0,0,0,1.062,0,8.343,8.343,0,0,1,5.3-1.9,8.25,8.25,0,0,1,8.343,6.8.833.833,0,0,0,1.022.678,11.977,11.977,0,0,1,1.468.024,6.666,6.666,0,0,1,0,13.333Z"/>
      <path id="Path_52" data-name="Path 52" d="M8.526,29.465C7.937,30.171,5,33.792,5,35.832a4.167,4.167,0,1,0,8.333,0c0-2.04-2.937-5.661-3.527-6.367a.862.862,0,0,0-1.28,0Zm.64,8.867a2.5,2.5,0,0,1-2.5-2.5c0-.894,1.308-2.941,2.5-4.5,1.192,1.555,2.5,3.6,2.5,4.5A2.5,2.5,0,0,1,9.166,38.332Z"/>
      <path id="Path_53" data-name="Path 53" d="M30.832,39.165c0-2.04-2.937-5.661-3.527-6.367a.862.862,0,0,0-1.28,0c-.589.706-3.527,4.327-3.527,6.367a4.167,4.167,0,0,0,8.333,0Zm-6.666,0c0-.894,1.308-2.941,2.5-4.5,1.192,1.555,2.5,3.6,2.5,4.5a2.5,2.5,0,0,1-5,0Z"/>
      <path id="Path_54" data-name="Path 54" d="M44.165,40a4.172,4.172,0,0,0,4.167-4.167c0-2.04-2.937-5.661-3.527-6.367a.862.862,0,0,0-1.28,0C42.936,30.171,40,33.792,40,35.832A4.172,4.172,0,0,0,44.165,40Zm0-8.666c1.192,1.555,2.5,3.6,2.5,4.5a2.5,2.5,0,1,1-5,0C41.665,34.938,42.974,32.891,44.165,31.332Z"/>
      <path id="Path_55" data-name="Path 55" d="M16.859,41.131c-.589.706-3.527,4.327-3.527,6.367a4.167,4.167,0,1,0,8.333,0c0-2.04-2.937-5.661-3.527-6.367a.862.862,0,0,0-1.28,0ZM17.5,50A2.5,2.5,0,0,1,15,47.5c0-.894,1.308-2.941,2.5-4.5,1.192,1.555,2.5,3.6,2.5,4.5A2.5,2.5,0,0,1,17.5,50Z"/>
      <path id="Path_56" data-name="Path 56" d="M36.025,41.131c-.589.706-3.527,4.327-3.527,6.367a4.167,4.167,0,1,0,8.333,0c0-2.04-2.937-5.661-3.527-6.367a.862.862,0,0,0-1.28,0ZM36.665,50a2.5,2.5,0,0,1-2.5-2.5c0-.894,1.308-2.941,2.5-4.5,1.192,1.555,2.5,3.6,2.5,4.5A2.5,2.5,0,0,1,36.665,50Z"/>
      <path id="Path_57" data-name="Path 57" d="M32.5,5.833a.833.833,0,0,0,0,1.667,4.172,4.172,0,0,1,4.167,4.167.833.833,0,0,0,1.667,0A5.84,5.84,0,0,0,32.5,5.833Z"/>
      <path id="Path_58" data-name="Path 58" d="M10.833,20.416A2.917,2.917,0,0,1,7.916,17.5a.833.833,0,1,0-1.667,0,4.588,4.588,0,0,0,4.583,4.583.833.833,0,1,0,0-1.667Z"/>
    </g>
  </g>
</svg>
