<svg xmlns="http://www.w3.org/2000/svg" xmlns:xlink="http://www.w3.org/1999/xlink" width="50" height="50" viewBox="0 0 50 50">
  <defs>
    <clipPath id="clip-path">
      <rect id="Rectangle_4" data-name="Rectangle 4" width="50" height="50" transform="translate(244 124)" fill="#fff" stroke="#707070" stroke-width="1"/>
    </clipPath>
  </defs>
  <g id="Mask_Group_4" data-name="Mask Group 4" transform="translate(-244 -124)" clip-path="url(#clip-path)">
    <g id="snow" transform="translate(244.205 124.096)">
      <g id="Group_3" data-name="Group 3">
        <path id="Path_32" data-name="Path 32" d="M43.459,16.072a5.647,5.647,0,0,0-1.407.183,8.131,8.131,0,0,0-6.819-5.106A13.35,13.35,0,0,0,9.512,9.873H9.434a8.755,8.755,0,1,0,0,17.51H43.458a5.655,5.655,0,0,0,0-11.31Z" fill="#cae8f9"/>
        <path id="Path_33" data-name="Path 33" d="M13.209,11.765a.681.681,0,0,1-.647-.893A10.119,10.119,0,0,1,22.2,3.89a.681.681,0,1,1,0,1.362A8.759,8.759,0,0,0,13.856,11.3.681.681,0,0,1,13.209,11.765Z" fill="#81c8ee"/>
        <path id="Path_34" data-name="Path 34" d="M28.28,46.339a.682.682,0,0,1-.4-.131L24.9,44.026l-2.98,2.182a.681.681,0,0,1-1.079-.622l.4-3.672-3.38-1.49a.681.681,0,0,1,0-1.245l3.38-1.49-.4-3.672a.681.681,0,0,1,1.079-.622l2.98,2.18,2.98-2.182a.681.681,0,0,1,1.079.622l-.4,3.672,3.38,1.49a.681.681,0,0,1,0,1.245l-3.38,1.49.4,3.672a.68.68,0,0,1-.677.754ZM24.9,42.5a.681.681,0,0,1,.4.131L27.436,44.2l-.286-2.632a.68.68,0,0,1,.4-.7L29.974,39.8l-2.423-1.069a.68.68,0,0,1-.4-.7l.286-2.632L25.3,36.967a.681.681,0,0,1-.8,0L22.359,35.4l.286,2.632a.68.68,0,0,1-.4.7L19.82,39.8l2.423,1.068a.68.68,0,0,1,.4.7L22.359,44.2,24.5,42.633a.681.681,0,0,1,.4-.131Z" fill="#81c8ee"/>
        <g id="Group_2" data-name="Group 2">
          <path id="Path_35" data-name="Path 35" d="M31.718,36.648l1.8.353a.665.665,0,0,0,.132.013.681.681,0,0,0,.13-1.349L32.5,35.413l.424-1.239a.681.681,0,1,0-1.288-.441l-.594,1.735-5.46,3.151v-6.3l1.206-1.382a.681.681,0,1,0-1.026-.895l-.862.986-.861-.987a.681.681,0,1,0-1.026.895l1.206,1.382v6.3l-5.46-3.151-.594-1.735a.681.681,0,0,0-1.288.441l.424,1.239-1.284.252a.681.681,0,0,0,.13,1.349A.665.665,0,0,0,16.277,37l1.8-.353,5.46,3.151-5.46,3.151-1.8-.353a.681.681,0,0,0-.262,1.336l1.284.252-.424,1.239a.681.681,0,0,0,1.288.441l.594-1.736,5.46-3.151v6.3l-1.206,1.382a.681.681,0,1,0,1.026.895l.861-.987.861.987a.681.681,0,1,0,1.026-.895l-1.206-1.382v-6.3l5.46,3.151.594,1.736a.681.681,0,1,0,1.288-.441L32.5,44.186l1.284-.252a.681.681,0,0,0-.262-1.336l-1.8.353L26.258,39.8Z" fill="#cae8f9"/>
          <path id="Path_36" data-name="Path 36" d="M46.957,37.089l-.844.166-2.334-1.348,2.334-1.348.844.166a.7.7,0,0,0,.132.013.681.681,0,0,0,.13-1.349l-.329-.064L47,33.008a.681.681,0,1,0-1.288-.441l-.279.813L43.1,34.728v-2.7l.565-.648a.681.681,0,1,0-1.025-.895l-.22.252-.22-.252a.681.681,0,1,0-1.026.895l.565.648v2.7L39.4,33.38l-.279-.813a.681.681,0,1,0-1.288.441l.109.317-.329.064a.681.681,0,0,0,.13,1.349.7.7,0,0,0,.132-.013l.844-.166,2.334,1.348-2.334,1.348-.844-.166a.681.681,0,1,0-.262,1.336l.329.065-.109.317a.681.681,0,0,0,.424.864.669.669,0,0,0,.22.037.682.682,0,0,0,.644-.461l.279-.813,2.334-1.348v2.7l-.565.648a.681.681,0,0,0,1.026.895l.22-.252.22.252a.681.681,0,1,0,1.026-.895l-.565-.648V37.087l2.334,1.347.279.813A.681.681,0,1,0,47,38.806l-.108-.316.329-.065a.681.681,0,1,0-.262-1.336Z" fill="#cae8f9"/>
          <path id="Path_37" data-name="Path 37" d="M11.073,34.559l.844.166a.7.7,0,0,0,.132.013.681.681,0,0,0,.13-1.349l-.329-.064.109-.317a.681.681,0,0,0-1.288-.441l-.279.813L8.058,34.728v-2.7l.565-.648A.681.681,0,1,0,7.6,30.49l-.22.252-.22-.252a.681.681,0,1,0-1.025.895l.565.648v2.7L4.362,33.38l-.277-.813a.681.681,0,1,0-1.288.441l.109.317-.329.064a.681.681,0,0,0,.13,1.351.7.7,0,0,0,.132-.013l.844-.166,2.334,1.348L3.682,37.256l-.842-.167a.681.681,0,1,0-.262,1.336l.329.065-.109.316a.681.681,0,1,0,1.288.441l.279-.813L6.7,37.087v2.695l-.565.648a.681.681,0,1,0,1.026.895l.22-.252.22.252a.681.681,0,1,0,1.026-.895l-.565-.648v-2.7l2.334,1.348.279.813a.681.681,0,0,0,.644.461.671.671,0,0,0,.22-.037.681.681,0,0,0,.424-.864l-.109-.317.329-.065a.681.681,0,1,0-.262-1.336l-.844.166L8.741,35.907Z" fill="#cae8f9"/>
        </g>
      </g>
      <g id="Group_4" data-name="Group 4">
        <path id="Path_38" data-name="Path 38" d="M9.436,28.062h2.284a.681.681,0,1,0,0-1.362H9.436a8.074,8.074,0,1,1,.015-16.148h.056a.671.671,0,0,0,.652-.467A12.669,12.669,0,0,1,33.067,7.522a.681.681,0,0,0,1.167-.7A14.03,14.03,0,0,0,9.025,9.2a9.435,9.435,0,1,0,.41,18.865Z"/>
        <path id="Path_39" data-name="Path 39" d="M43.459,15.391a6.171,6.171,0,0,0-1,.084,8.757,8.757,0,0,0-7.161-5,.681.681,0,1,0-.123,1.356,7.409,7.409,0,0,1,6.248,4.679.682.682,0,0,0,.8.409A4.971,4.971,0,1,1,43.459,26.7H24.9a.681.681,0,1,0,0,1.362H43.459a6.336,6.336,0,0,0,0-12.671Z"/>
        <path id="Path_40" data-name="Path 40" d="M17.36,26.7a.681.681,0,0,0,0,1.362h1.9a.681.681,0,1,0,0-1.362Z"/>
        <path id="Path_41" data-name="Path 41" d="M22.2,5.252a.681.681,0,0,0,0-1.362,10.119,10.119,0,0,0-9.636,6.982.681.681,0,1,0,1.294.424A8.759,8.759,0,0,1,22.2,5.252Z"/>
        <path id="Path_42" data-name="Path 42" d="M33.519,37a.665.665,0,0,0,.132.013.681.681,0,0,0,.13-1.349L32.5,35.413l.424-1.239a.681.681,0,1,0-1.288-.441l-.594,1.735-2.39,1.38.308-2.833a.681.681,0,0,0-1.079-.622l-2.3,1.683V32.317l1.206-1.382a.681.681,0,1,0-1.026-.895l-.862.986-.861-.987a.681.681,0,1,0-1.026.895l1.206,1.382v2.759l-2.3-1.683a.681.681,0,0,0-1.079.622l.308,2.833-2.39-1.38-.594-1.735a.681.681,0,1,0-1.288.441l.424,1.239-1.284.252a.681.681,0,0,0,.13,1.349A.665.665,0,0,0,16.277,37l1.8-.353,2.389,1.379-2.606,1.15a.681.681,0,0,0,0,1.245l2.606,1.15-2.39,1.38-1.8-.353a.681.681,0,1,0-.262,1.336l1.284.252-.424,1.239a.681.681,0,0,0,1.288.441l.594-1.736,2.39-1.38-.308,2.833a.681.681,0,0,0,1.079.622l2.3-1.683v2.76L23.01,48.664a.681.681,0,1,0,1.026.895l.862-.984.861.987a.681.681,0,1,0,1.026-.895l-1.206-1.382v-2.76l2.3,1.683a.681.681,0,0,0,1.079-.622l-.308-2.833,2.39,1.38.594,1.736a.681.681,0,1,0,1.288-.441L32.5,44.188l1.284-.252a.681.681,0,0,0-.262-1.336l-1.8.353-2.39-1.38,2.606-1.15a.681.681,0,0,0,0-1.245l-2.606-1.15,2.389-1.379Zm-6.083-1.6-.249,2.289-1.609.929V36.763Zm-5.077,0,1.858,1.362v1.858l-1.609-.931ZM19.82,39.8l2.106-.929,1.609.929-1.609.931Zm2.539,4.4.249-2.289,1.609-.929v1.857Zm5.077,0-1.858-1.362V40.98l1.609.929Zm2.539-4.4-2.107.932-1.609-.93,1.609-.929Z"/>
        <path id="Path_43" data-name="Path 43" d="M46.113,34.559l.844.166a.7.7,0,0,0,.132.013.681.681,0,0,0,.13-1.349l-.329-.064L47,33.008a.681.681,0,0,0-1.288-.441l-.279.813L43.1,34.728v-2.7l.565-.648a.681.681,0,1,0-1.025-.895l-.22.252-.22-.252a.681.681,0,1,0-1.026.895l.565.648v2.7L39.4,33.38l-.279-.813a.681.681,0,1,0-1.288.441l.109.317-.329.064a.681.681,0,0,0,.13,1.349.7.7,0,0,0,.132-.013l.844-.166,2.334,1.348-2.334,1.348-.844-.166a.681.681,0,1,0-.262,1.336l.329.065-.109.317a.681.681,0,0,0,.424.864.669.669,0,0,0,.22.037.682.682,0,0,0,.644-.461l.279-.813,2.334-1.348v2.7l-.565.648a.681.681,0,0,0,1.026.895l.22-.252.22.252a.681.681,0,1,0,1.026-.895l-.565-.648V37.087l2.334,1.347.279.813A.681.681,0,1,0,47,38.806l-.108-.316.329-.065a.681.681,0,1,0-.262-1.336l-.844.166-2.334-1.348Z"/>
        <path id="Path_44" data-name="Path 44" d="M11.073,34.559l.844.166a.7.7,0,0,0,.132.013.681.681,0,0,0,.13-1.349l-.329-.064.109-.317a.681.681,0,0,0-1.288-.441l-.279.813L8.058,34.728v-2.7l.565-.648A.681.681,0,1,0,7.6,30.49l-.22.252-.22-.252a.681.681,0,1,0-1.025.895l.565.648v2.7L4.362,33.38l-.277-.813a.681.681,0,1,0-1.288.441l.109.317-.329.064a.681.681,0,0,0,.13,1.351.7.7,0,0,0,.132-.013l.844-.166,2.334,1.348L3.682,37.256l-.842-.167a.681.681,0,1,0-.262,1.336l.329.065-.109.316a.681.681,0,1,0,1.288.441l.279-.813L6.7,37.087v2.695l-.565.648a.681.681,0,1,0,1.026.895l.22-.252.22.252a.681.681,0,1,0,1.026-.895l-.565-.648v-2.7l2.334,1.348.279.813a.681.681,0,0,0,.644.461.671.671,0,0,0,.22-.037.681.681,0,0,0,.424-.864l-.109-.317.329-.065a.681.681,0,1,0-.262-1.336l-.844.166L8.741,35.907Z"/>
      </g>
    </g>
  </g>
</svg>
