<svg xmlns="http://www.w3.org/2000/svg" xmlns:xlink="http://www.w3.org/1999/xlink" width="50" height="50" viewBox="0 0 50 50">
  <defs>
    <clipPath id="clip-path">
      <rect id="Rectangle_3" data-name="Rectangle 3" width="50" height="50" transform="translate(179 124)" fill="#fff" stroke="#707070" stroke-width="1"/>
    </clipPath>
  </defs>
  <g id="Mask_Group_3" data-name="Mask Group 3" transform="translate(-179 -124)" clip-path="url(#clip-path)">
    <g id="sun" transform="translate(179 124)">
      <circle id="Ellipse_1" data-name="Ellipse 1" cx="14.143" cy="14.143" r="14.143" transform="translate(10.857 10.857)" fill="#ffd347"/>
      <path id="Path_18" data-name="Path 18" d="M25,10.857a14.327,14.327,0,0,0-1.515.081,14.143,14.143,0,0,1,0,28.123A14.143,14.143,0,1,0,25,10.857Z" fill="#ffbe31"/>
      <path id="Path_19" data-name="Path 19" d="M25,39.9A14.9,14.9,0,0,1,13.369,15.689a.756.756,0,1,1,1.179.945A13.241,13.241,0,0,0,11.613,25,13.387,13.387,0,1,0,25,11.613a13.249,13.249,0,0,0-8.278,2.865.756.756,0,0,1-.935-1.187A14.747,14.747,0,0,1,25,10.1a14.9,14.9,0,0,1,0,29.8Z"/>
      <path id="Path_20" data-name="Path 20" d="M25,5.552a.756.756,0,0,1-.756-.756V.756a.756.756,0,1,1,1.511,0V4.8A.755.755,0,0,1,25,5.552Z"/>
      <path id="Path_21" data-name="Path 21" d="M14.9,8.259a.755.755,0,0,1-.655-.378l-2.02-3.5a.756.756,0,0,1,1.309-.756l2.02,3.5A.756.756,0,0,1,14.9,8.259Z"/>
      <path id="Path_22" data-name="Path 22" d="M7.5,15.654a.752.752,0,0,1-.377-.1l-3.5-2.02a.756.756,0,0,1,.756-1.309l3.5,2.02a.756.756,0,0,1-.379,1.41Z"/>
      <path id="Path_23" data-name="Path 23" d="M4.8,25.756H.756a.756.756,0,1,1,0-1.511H4.8a.756.756,0,1,1,0,1.511Z"/>
      <path id="Path_24" data-name="Path 24" d="M4,37.878a.756.756,0,0,1-.378-1.41l3.5-2.02a.756.756,0,1,1,.756,1.309l-3.5,2.02A.753.753,0,0,1,4,37.878Z"/>
      <path id="Path_25" data-name="Path 25" d="M12.877,46.752a.756.756,0,0,1-.654-1.133l2.02-3.5a.756.756,0,0,1,1.309.756l-2.02,3.5A.755.755,0,0,1,12.877,46.752Z"/>
      <path id="Path_26" data-name="Path 26" d="M25,50a.756.756,0,0,1-.756-.756V45.2a.756.756,0,0,1,1.511,0v4.041A.756.756,0,0,1,25,50Z"/>
      <path id="Path_27" data-name="Path 27" d="M37.123,46.752a.755.755,0,0,1-.655-.378l-2.02-3.5a.756.756,0,0,1,1.309-.756l2.02,3.5a.756.756,0,0,1-.654,1.133Z"/>
      <path id="Path_28" data-name="Path 28" d="M46,37.878a.752.752,0,0,1-.377-.1l-3.5-2.02a.756.756,0,0,1,.756-1.309l3.5,2.02A.756.756,0,0,1,46,37.878Z"/>
      <path id="Path_29" data-name="Path 29" d="M49.244,25.756H45.2a.756.756,0,1,1,0-1.511h4.041a.756.756,0,0,1,0,1.511Z"/>
      <path id="Path_30" data-name="Path 30" d="M42.5,15.654a.756.756,0,0,1-.378-1.41l3.5-2.02a.756.756,0,0,1,.756,1.309l-3.5,2.02A.753.753,0,0,1,42.5,15.654Z"/>
      <path id="Path_31" data-name="Path 31" d="M35.1,8.259a.756.756,0,0,1-.654-1.133l2.02-3.5a.756.756,0,1,1,1.309.756l-2.02,3.5A.756.756,0,0,1,35.1,8.259Z"/>
    </g>
  </g>
</svg>
